<mxfile host="Electron" modified="2023-06-14T23:42:04.136Z" agent="Mozilla/5.0 (Macintosh; Intel Mac OS X 10_15_7) AppleWebKit/537.36 (KHTML, like Gecko) draw.io/21.4.0 Chrome/112.0.5615.204 Electron/24.5.1 Safari/537.36" etag="h7HYLM9o8J9M5vJaxK2R" version="21.4.0" type="device">
  <diagram name="Page-1" id="MguKNe05weMmfK5Nx9vz">
    <mxGraphModel dx="1114" dy="894" grid="1" gridSize="10" guides="1" tooltips="1" connect="1" arrows="1" fold="1" page="1" pageScale="1" pageWidth="850" pageHeight="1100" math="0" shadow="0">
      <root>
        <mxCell id="0" />
        <mxCell id="1" parent="0" />
        <mxCell id="h5LtyWK25E_HbfyjzeMH-1" value="" style="rounded=1;whiteSpace=wrap;html=1;arcSize=5;fontFamily=SF Mono;fillColor=#CCFFCC;fontColor=#333333;strokeColor=#666666;" vertex="1" parent="1">
          <mxGeometry x="200" y="200" width="60" height="250" as="geometry" />
        </mxCell>
        <mxCell id="h5LtyWK25E_HbfyjzeMH-2" value="b" style="rounded=1;whiteSpace=wrap;html=1;arcSize=5;fontFamily=SF Mono;fillColor=#f5f5f5;fontColor=#333333;strokeColor=#666666;" vertex="1" parent="1">
          <mxGeometry x="200" y="200" width="60" height="50" as="geometry" />
        </mxCell>
        <mxCell id="h5LtyWK25E_HbfyjzeMH-3" value="a" style="rounded=1;whiteSpace=wrap;html=1;arcSize=5;fontFamily=SF Mono;fillColor=#f5f5f5;fontColor=#333333;strokeColor=#666666;" vertex="1" parent="1">
          <mxGeometry x="200" y="250" width="60" height="50" as="geometry" />
        </mxCell>
        <mxCell id="h5LtyWK25E_HbfyjzeMH-4" value="N" style="rounded=1;whiteSpace=wrap;html=1;arcSize=5;fontFamily=SF Mono;fillColor=#f5f5f5;fontColor=#333333;strokeColor=#666666;" vertex="1" parent="1">
          <mxGeometry x="200" y="300" width="60" height="50" as="geometry" />
        </mxCell>
        <mxCell id="h5LtyWK25E_HbfyjzeMH-5" value="retval" style="rounded=1;whiteSpace=wrap;html=1;arcSize=5;fontFamily=SF Mono;fillColor=#f5f5f5;fontColor=#333333;strokeColor=#666666;" vertex="1" parent="1">
          <mxGeometry x="200" y="350" width="60" height="50" as="geometry" />
        </mxCell>
        <mxCell id="h5LtyWK25E_HbfyjzeMH-6" value="..." style="rounded=1;whiteSpace=wrap;html=1;arcSize=5;fontFamily=SF Mono;fillColor=#f5f5f5;fontColor=#333333;strokeColor=#666666;" vertex="1" parent="1">
          <mxGeometry x="200" y="400" width="60" height="50" as="geometry" />
        </mxCell>
        <mxCell id="h5LtyWK25E_HbfyjzeMH-7" value="Stack" style="text;html=1;strokeColor=none;fillColor=none;align=center;verticalAlign=middle;whiteSpace=wrap;rounded=0;fontFamily=SF Mono;" vertex="1" parent="1">
          <mxGeometry x="200" y="160" width="60" height="30" as="geometry" />
        </mxCell>
        <mxCell id="h5LtyWK25E_HbfyjzeMH-8" value="H" style="text;html=1;strokeColor=none;fillColor=none;align=center;verticalAlign=middle;whiteSpace=wrap;rounded=0;fontFamily=SF Mono;" vertex="1" parent="1">
          <mxGeometry x="160" y="200" width="30" height="30" as="geometry" />
        </mxCell>
        <mxCell id="h5LtyWK25E_HbfyjzeMH-9" value="L" style="text;html=1;strokeColor=none;fillColor=none;align=center;verticalAlign=middle;whiteSpace=wrap;rounded=0;fontFamily=SF Mono;" vertex="1" parent="1">
          <mxGeometry x="160" y="420" width="30" height="30" as="geometry" />
        </mxCell>
        <mxCell id="h5LtyWK25E_HbfyjzeMH-10" value="" style="endArrow=classic;html=1;rounded=0;" edge="1" parent="1">
          <mxGeometry width="50" height="50" relative="1" as="geometry">
            <mxPoint x="110" y="399" as="sourcePoint" />
            <mxPoint x="190" y="399" as="targetPoint" />
          </mxGeometry>
        </mxCell>
        <mxCell id="h5LtyWK25E_HbfyjzeMH-11" value="&lt;font face=&quot;SF Mono&quot;&gt;SP&lt;/font&gt;" style="text;html=1;strokeColor=none;fillColor=none;align=center;verticalAlign=middle;whiteSpace=wrap;rounded=0;" vertex="1" parent="1">
          <mxGeometry x="120" y="369" width="60" height="30" as="geometry" />
        </mxCell>
        <mxCell id="h5LtyWK25E_HbfyjzeMH-12" value="" style="rounded=1;whiteSpace=wrap;html=1;arcSize=5;fontFamily=SF Mono;fillColor=#CCFFCC;fontColor=#333333;strokeColor=#666666;" vertex="1" parent="1">
          <mxGeometry x="460" y="200" width="60" height="250" as="geometry" />
        </mxCell>
        <mxCell id="h5LtyWK25E_HbfyjzeMH-13" value="OPD_X" style="rounded=1;whiteSpace=wrap;html=1;arcSize=5;fontFamily=SF Mono;fillColor=#CCFFCC;fontColor=#333333;strokeColor=#666666;" vertex="1" parent="1">
          <mxGeometry x="460" y="200" width="60" height="50" as="geometry" />
        </mxCell>
        <mxCell id="h5LtyWK25E_HbfyjzeMH-14" value="OPD_Y" style="rounded=1;whiteSpace=wrap;html=1;arcSize=5;fontFamily=SF Mono;fillColor=#CCFFCC;fontColor=#333333;strokeColor=#666666;" vertex="1" parent="1">
          <mxGeometry x="460" y="250" width="60" height="50" as="geometry" />
        </mxCell>
        <mxCell id="h5LtyWK25E_HbfyjzeMH-15" value="retval" style="rounded=1;whiteSpace=wrap;html=1;arcSize=5;fontFamily=SF Mono;fillColor=#CCFFCC;fontColor=#333333;strokeColor=#666666;" vertex="1" parent="1">
          <mxGeometry x="460" y="300" width="60" height="50" as="geometry" />
        </mxCell>
        <mxCell id="h5LtyWK25E_HbfyjzeMH-16" value="a" style="rounded=1;whiteSpace=wrap;html=1;arcSize=5;fontFamily=SF Mono;fillColor=#f5f5f5;fontColor=#333333;strokeColor=#666666;" vertex="1" parent="1">
          <mxGeometry x="460" y="350" width="60" height="50" as="geometry" />
        </mxCell>
        <mxCell id="h5LtyWK25E_HbfyjzeMH-17" value="..." style="rounded=1;whiteSpace=wrap;html=1;arcSize=5;fontFamily=SF Mono;fillColor=#f5f5f5;fontColor=#333333;strokeColor=#666666;" vertex="1" parent="1">
          <mxGeometry x="460" y="400" width="60" height="50" as="geometry" />
        </mxCell>
        <mxCell id="h5LtyWK25E_HbfyjzeMH-18" value="Stack" style="text;html=1;strokeColor=none;fillColor=none;align=center;verticalAlign=middle;whiteSpace=wrap;rounded=0;fontFamily=SF Mono;" vertex="1" parent="1">
          <mxGeometry x="460" y="160" width="60" height="30" as="geometry" />
        </mxCell>
        <mxCell id="h5LtyWK25E_HbfyjzeMH-19" value="H" style="text;html=1;strokeColor=none;fillColor=none;align=center;verticalAlign=middle;whiteSpace=wrap;rounded=0;fontFamily=SF Mono;" vertex="1" parent="1">
          <mxGeometry x="420" y="200" width="30" height="30" as="geometry" />
        </mxCell>
        <mxCell id="h5LtyWK25E_HbfyjzeMH-20" value="L" style="text;html=1;strokeColor=none;fillColor=none;align=center;verticalAlign=middle;whiteSpace=wrap;rounded=0;fontFamily=SF Mono;" vertex="1" parent="1">
          <mxGeometry x="420" y="420" width="30" height="30" as="geometry" />
        </mxCell>
        <mxCell id="h5LtyWK25E_HbfyjzeMH-21" value="" style="endArrow=classic;html=1;rounded=0;" edge="1" parent="1">
          <mxGeometry width="50" height="50" relative="1" as="geometry">
            <mxPoint x="370" y="349" as="sourcePoint" />
            <mxPoint x="450" y="349" as="targetPoint" />
          </mxGeometry>
        </mxCell>
        <mxCell id="h5LtyWK25E_HbfyjzeMH-22" value="&lt;font face=&quot;SF Mono&quot;&gt;SP&lt;/font&gt;" style="text;html=1;strokeColor=none;fillColor=none;align=center;verticalAlign=middle;whiteSpace=wrap;rounded=0;" vertex="1" parent="1">
          <mxGeometry x="380" y="319" width="60" height="30" as="geometry" />
        </mxCell>
        <mxCell id="h5LtyWK25E_HbfyjzeMH-23" value="Callee" style="text;html=1;strokeColor=none;fillColor=none;align=center;verticalAlign=middle;whiteSpace=wrap;rounded=0;fontFamily=SF Mono;fontColor=#666666;" vertex="1" parent="1">
          <mxGeometry x="200" y="460" width="60" height="30" as="geometry" />
        </mxCell>
        <mxCell id="h5LtyWK25E_HbfyjzeMH-24" value="Caller" style="text;html=1;strokeColor=none;fillColor=none;align=center;verticalAlign=middle;whiteSpace=wrap;rounded=0;fontFamily=SF Mono;fontColor=#4D9900;" vertex="1" parent="1">
          <mxGeometry x="460" y="460" width="60" height="30" as="geometry" />
        </mxCell>
        <mxCell id="h5LtyWK25E_HbfyjzeMH-25" value="" style="endArrow=classic;html=1;rounded=0;" edge="1" parent="1">
          <mxGeometry width="50" height="50" relative="1" as="geometry">
            <mxPoint x="305" y="474.5" as="sourcePoint" />
            <mxPoint x="425" y="474.5" as="targetPoint" />
          </mxGeometry>
        </mxCell>
      </root>
    </mxGraphModel>
  </diagram>
</mxfile>
